<?xml version="1.0" encoding="UTF-8"?>
<svg xmlns="http://www.w3.org/2000/svg" xmlns:xlink="http://www.w3.org/1999/xlink" width="80px" height="86px" viewBox="0 0 80 86" version="1.1">
<g id="surface1">
<path style=" stroke:none;fill-rule:nonzero;fill:rgb(20.784314%,49.411765%,99.607843%);fill-opacity:1;" d="M 0 25.707031 C 0.5 23.15625 1.882812 21.078125 3.125 18.925781 C 5.859375 14.199219 8.621094 9.492188 11.320312 4.746094 C 13.15625 1.523438 15.777344 -0.0078125 19.289062 0 C 33.082031 0.03125 46.875 0.03125 60.667969 0 C 64.179688 -0.0078125 66.796875 1.523438 68.636719 4.742188 C 71.78125 10.246094 74.957031 15.730469 78.160156 21.195312 C 79.390625 23.292969 80.074219 25.5 79.96875 28.003906 C 79.894531 29.820312 79.929688 31.644531 79.960938 33.460938 C 80.011719 36.507812 79.015625 39.027344 76.828125 40.988281 C 76.769531 41.039062 76.730469 41.113281 76.722656 41.121094 C 77.445312 42.089844 78.316406 42.949219 78.808594 44.011719 C 79.363281 45.210938 79.808594 46.574219 79.886719 47.894531 C 80.050781 50.597656 80.015625 53.324219 79.902344 56.03125 C 79.855469 57.144531 79.488281 58.273438 79.113281 59.328125 C 78.765625 60.320312 77.835938 60.667969 76.996094 60.3125 C 76.15625 59.964844 75.710938 59.042969 76.078125 58.042969 C 76.621094 56.566406 76.660156 55.050781 76.636719 53.511719 C 76.609375 51.636719 76.691406 49.753906 76.542969 47.890625 C 76.316406 45.039062 74.324219 43.128906 71.660156 43.011719 C 71.476562 43 71.296875 43.007812 71.113281 43.007812 C 50.347656 43.007812 29.578125 43.007812 8.8125 43.007812 C 6.09375 43.007812 4.179688 44.460938 3.519531 47.015625 C 3.476562 47.175781 3.429688 47.339844 3.429688 47.503906 C 3.398438 50.273438 3.238281 53.050781 3.394531 55.808594 C 3.578125 59.046875 5.675781 60.921875 8.785156 60.929688 C 13.417969 60.941406 18.050781 60.933594 22.683594 60.933594 C 26.949219 60.933594 31.21875 60.933594 35.484375 60.933594 C 35.824219 60.933594 36.167969 60.933594 36.496094 60.992188 C 37.230469 61.117188 37.75 61.746094 37.8125 62.535156 C 37.882812 63.382812 37.476562 64.117188 36.734375 64.355469 C 36.371094 64.476562 35.96875 64.5 35.582031 64.5 C 26.628906 64.507812 17.675781 64.5 8.726562 64.507812 C 6.078125 64.507812 4.164062 65.992188 3.511719 68.519531 C 3.472656 68.679688 3.425781 68.847656 3.425781 69.011719 C 3.394531 71.753906 3.234375 74.503906 3.378906 77.234375 C 3.554688 80.523438 5.648438 82.425781 8.789062 82.429688 C 15.632812 82.441406 22.480469 82.433594 29.324219 82.433594 C 29.582031 82.433594 29.84375 82.425781 30.101562 82.445312 C 31.011719 82.503906 31.550781 82.957031 31.753906 83.8125 C 31.945312 84.628906 31.632812 85.328125 30.855469 85.828125 C 30.769531 85.882812 30.691406 85.949219 30.609375 86.007812 L 7.183594 86.007812 C 7.019531 85.949219 6.859375 85.875 6.6875 85.832031 C 3.574219 85.039062 1.488281 83.007812 0.410156 79.777344 C 0.25 79.289062 0.136719 78.78125 0.00390625 78.28125 L 0.00390625 68.710938 C 0.507812 66.347656 1.460938 64.269531 3.433594 62.703125 C 2.867188 62.136719 2.328125 61.664062 1.863281 61.113281 C 0.820312 59.878906 0.417969 58.324219 0 56.777344 L 0 47.207031 C 0.503906 44.84375 1.460938 42.765625 3.433594 41.199219 C 2.867188 40.632812 2.324219 40.160156 1.859375 39.609375 C 0.820312 38.382812 0.417969 36.824219 0 35.28125 Z M 39.976562 21.511719 C 29.648438 21.511719 19.320312 21.511719 8.988281 21.515625 C 8.523438 21.515625 8.046875 21.523438 7.589844 21.597656 C 5.304688 21.976562 3.558594 23.835938 3.421875 26.320312 C 3.28125 28.941406 3.320312 31.578125 3.363281 34.203125 C 3.375 34.933594 3.570312 35.714844 3.867188 36.371094 C 4.894531 38.648438 6.722656 39.445312 8.988281 39.441406 C 29.644531 39.429688 50.304688 39.4375 70.964844 39.4375 C 71.144531 39.4375 71.328125 39.441406 71.511719 39.433594 C 74.160156 39.296875 76.34375 37.46875 76.492188 34.953125 C 76.660156 32.140625 76.5625 29.308594 76.566406 26.488281 C 76.566406 26.15625 76.503906 25.816406 76.421875 25.5 C 75.777344 22.996094 73.875 21.515625 71.277344 21.511719 C 60.84375 21.507812 50.410156 21.511719 39.976562 21.511719 Z M 7.632812 17.914062 L 72.300781 17.914062 C 72.128906 17.605469 72.003906 17.367188 71.871094 17.136719 C 69.851562 13.644531 67.796875 10.179688 65.828125 6.65625 C 64.636719 4.527344 62.964844 3.558594 60.667969 3.570312 C 54.058594 3.605469 47.449219 3.582031 40.84375 3.582031 C 33.609375 3.582031 26.375 3.59375 19.140625 3.578125 C 16.972656 3.570312 15.355469 4.503906 14.21875 6.507812 C 12.421875 9.683594 10.574219 12.828125 8.75 15.984375 C 8.390625 16.597656 8.039062 17.214844 7.632812 17.917969 Z M 7.632812 17.914062 "/>
<path style=" stroke:none;fill-rule:nonzero;fill:rgb(20.784314%,49.411765%,99.607843%);fill-opacity:1;" d="M 40.601562 86 C 38.996094 85.601562 37.515625 84.972656 36.214844 83.800781 C 32.308594 80.269531 32.382812 73.375 36.472656 70.089844 C 37.367188 69.367188 38.464844 68.925781 39.503906 68.433594 C 39.878906 68.257812 40.085938 68.121094 40.148438 67.652344 C 41.371094 58.773438 48.765625 52.722656 56.988281 53.933594 C 61.003906 54.523438 64.273438 56.613281 66.757812 60.078125 C 67.152344 60.625 67.488281 60.980469 68.253906 60.96875 C 74.328125 60.894531 79.410156 65.921875 79.921875 72.433594 C 80.433594 78.941406 76.101562 84.835938 70.074219 85.839844 C 69.929688 85.867188 69.789062 85.945312 69.648438 86 Z M 55.164062 82.429688 C 59.402344 82.429688 63.644531 82.429688 67.886719 82.429688 C 67.9375 82.429688 67.988281 82.429688 68.042969 82.429688 C 73.421875 82.371094 77.199219 77.773438 76.523438 72.105469 C 76 67.71875 71.828125 64.003906 67.863281 64.578125 C 66.296875 64.804688 65.363281 64.351562 64.523438 62.90625 C 62.144531 58.8125 57.382812 56.667969 52.972656 57.535156 C 47.621094 58.585938 43.773438 63.195312 43.359375 69.046875 C 43.207031 71.210938 42.949219 71.5 40.953125 71.734375 C 38.148438 72.066406 36.085938 75.296875 36.792969 78.253906 C 37.417969 80.878906 39.332031 82.414062 42.050781 82.425781 C 46.421875 82.4375 50.792969 82.429688 55.164062 82.429688 Z M 55.164062 82.429688 "/>
<path style=" stroke:none;fill-rule:nonzero;fill:rgb(20.784314%,49.411765%,99.607843%);fill-opacity:1;" d="M 55.015625 46.578125 C 59.226562 46.578125 63.441406 46.578125 67.652344 46.578125 C 69.132812 46.578125 69.925781 47.191406 69.949219 48.347656 C 69.976562 49.523438 69.148438 50.183594 67.636719 50.183594 C 59.1875 50.183594 50.738281 50.183594 42.289062 50.183594 C 40.804688 50.183594 40.015625 49.574219 39.992188 48.417969 C 39.964844 47.238281 40.789062 46.578125 42.300781 46.578125 C 46.539062 46.578125 50.777344 46.578125 55.015625 46.578125 Z M 55.015625 46.578125 "/>
<path style=" stroke:none;fill-rule:nonzero;fill:rgb(20.784314%,49.411765%,99.607843%);fill-opacity:1;" d="M 11.683594 57.3125 C 8.917969 57.328125 6.675781 54.925781 6.683594 51.949219 C 6.691406 49.015625 8.90625 46.621094 11.636719 46.589844 C 14.351562 46.5625 16.671875 49.054688 16.65625 51.980469 C 16.640625 54.90625 14.414062 57.296875 11.6875 57.3125 Z M 13.296875 51.96875 C 13.300781 50.996094 12.59375 50.21875 11.6875 50.207031 C 10.765625 50.191406 9.984375 51.027344 10.003906 51.996094 C 10.027344 52.929688 10.8125 53.753906 11.671875 53.742188 C 12.554688 53.730469 13.292969 52.925781 13.296875 51.96875 Z M 13.296875 51.96875 "/>
<path style=" stroke:none;fill-rule:nonzero;fill:rgb(20.784314%,49.411765%,99.607843%);fill-opacity:1;" d="M 11.648438 78.8125 C 8.878906 78.804688 6.65625 76.382812 6.6875 73.40625 C 6.714844 70.472656 8.96875 68.070312 11.671875 68.089844 C 14.390625 68.109375 16.621094 70.503906 16.652344 73.433594 C 16.6875 76.363281 14.402344 78.820312 11.648438 78.8125 Z M 13.296875 73.453125 C 13.292969 72.476562 12.574219 71.707031 11.671875 71.703125 C 10.78125 71.699219 10.027344 72.480469 10.007812 73.433594 C 9.988281 74.390625 10.796875 75.261719 11.6875 75.242188 C 12.574219 75.21875 13.300781 74.410156 13.296875 73.453125 Z M 13.296875 73.453125 "/>
<path style=" stroke:none;fill-rule:nonzero;fill:rgb(20.784314%,49.411765%,99.607843%);fill-opacity:1;" d="M 54.960938 25.078125 C 59.171875 25.078125 63.386719 25.078125 67.597656 25.078125 C 69.136719 25.078125 69.941406 25.699219 69.949219 26.875 C 69.957031 28.050781 69.140625 28.6875 67.613281 28.6875 C 59.191406 28.6875 50.765625 28.6875 42.34375 28.6875 C 40.804688 28.6875 40 28.070312 39.992188 26.894531 C 39.984375 25.71875 40.800781 25.078125 42.324219 25.078125 C 46.539062 25.078125 50.75 25.078125 54.960938 25.078125 Z M 54.960938 25.078125 "/>
<path style=" stroke:none;fill-rule:nonzero;fill:rgb(20.784314%,49.411765%,99.607843%);fill-opacity:1;" d="M 54.929688 35.828125 C 50.765625 35.828125 46.601562 35.828125 42.4375 35.828125 C 42.203125 35.828125 41.96875 35.835938 41.734375 35.820312 C 40.703125 35.757812 40.003906 35.046875 39.992188 34.066406 C 39.980469 33.085938 40.679688 32.34375 41.703125 32.265625 C 41.882812 32.25 42.066406 32.257812 42.246094 32.257812 C 50.730469 32.257812 59.214844 32.257812 67.695312 32.265625 C 68.082031 32.265625 68.484375 32.292969 68.847656 32.410156 C 69.539062 32.636719 69.996094 33.417969 69.945312 34.15625 C 69.886719 34.964844 69.328125 35.648438 68.585938 35.773438 C 68.253906 35.828125 67.910156 35.824219 67.574219 35.828125 C 63.359375 35.832031 59.140625 35.828125 54.925781 35.828125 Z M 54.929688 35.828125 "/>
<path style=" stroke:none;fill-rule:nonzero;fill:rgb(20.784314%,49.411765%,99.607843%);fill-opacity:1;" d="M 11.679688 35.816406 C 8.914062 35.832031 6.675781 33.429688 6.683594 30.449219 C 6.695312 27.519531 8.921875 25.109375 11.636719 25.09375 C 14.367188 25.078125 16.664062 27.550781 16.65625 30.488281 C 16.648438 33.402344 14.40625 35.804688 11.679688 35.816406 Z M 11.664062 28.707031 C 10.777344 28.703125 10.023438 29.492188 10.003906 30.441406 C 9.988281 31.398438 10.804688 32.269531 11.691406 32.246094 C 12.578125 32.222656 13.300781 31.410156 13.292969 30.453125 C 13.289062 29.480469 12.570312 28.710938 11.664062 28.707031 Z M 11.664062 28.707031 "/>
</g>
</svg>
